<?xml version="1.0" encoding="utf-8"?>
<svg xmlns="http://www.w3.org/2000/svg" xmlns:xlink="http://www.w3.org/1999/xlink" version= "1.1" width="1080px" height="2034px" viewBox="0 0 1080 2034">
<g id="layer1">
<g style="fill:rgb(47,90,37); fill-opacity:1.0; stroke-linejoin: miter">
<path d="M836.2695,1130.6813L836.2695,1130.6813C836.2695,1290.714,706.5374,1420.446,546.5047,1420.446L546.5047,1420.446C386.47192,1420.446,256.73984,1290.714,256.73984,1130.6813L256.73984,1130.6813C256.73984,970.64844,386.47192,840.9164,546.5047,840.9164L546.5047,840.9164C706.5374,840.9164,836.2695,970.64844,836.2695,1130.6813L836.2695,1130.6813 M830.09576,1130.6813L830.09576,1130.6813C830.09576,974.05804,703.1278,847.0901,546.5047,847.0901L546.5047,847.0901C389.88153,847.0901,262.91357,974.05804,262.91357,1130.6813L262.91357,1130.6813C262.91357,1287.3043,389.88153,1414.2723,546.5047,1414.2723L546.5047,1414.2723C703.1278,1414.2723,830.09576,1287.3043,830.09576,1130.6813 Z"/>
</g>
<g style="fill:rgb(47,90,37); fill-opacity:1.0; stroke-linejoin: miter">
<path d="M531.95154,805.45233C336.4669,798.0243,171.97409,950.4737,164.54594,1145.9586C157.11783,1341.4431,309.5674,1505.936,505.05225,1513.3645C700.53705,1520.7927,865.03,1368.3431,872.458,1172.8584C879.8859,977.37354,727.4363,812.8805,531.95154,805.45233 Z"/>
</g>
<g style="fill:rgb(47,90,37); fill-opacity:1.0; stroke-linejoin: miter">
<path d="M-234.79057,-27.091675L-234.79057,-27.091675L-234.79057,-27.091675L-234.79057,-27.091675L-234.79057,-27.091675L-234.79057,-27.091675L-234.79057,-27.091675L-234.79057,-27.091675L-234.79057,-27.091675L-234.79057,-27.091675 M-234.49437,-20.92511L-234.49437,-20.92511L-234.49437,-20.92511L-234.49437,-20.92511L-234.49437,-20.92511L-234.49437,-20.92511L-234.49437,-20.92511L-234.49437,-20.92511L-234.49437,-20.92511 Z"/>
</g>
<g style="fill:rgb(47,90,37); fill-opacity:1.0; stroke-linejoin: miter">
<path d="M131.82353,525.7191L131.87846,526.86304L131.86473,526.5771L131.851,526.2911L131.82353,525.7191Q131.89346,527.1755,131.82353,525.7191"/>
</g>
</g>
<g id="layer2">
<g style="fill:rgb(182,220,138); fill-opacity:1.0; stroke-linejoin: miter">
<path d="M507.23203,922.416Q260.4524,1081.1509,507.23203,922.416"/>
</g>
<g style="fill:rgb(199,203,57); fill-opacity:1.0; stroke-linejoin: miter">
<path d="M617.34106,853.12823L612.3191,857.1409Q544.34955,923.87305,510.16486,1005.0122Q477.48615,1081.314,483.23697,1158.5039Q486.03503,1181.5458,498.0611,1187.811Q513.2438,1198.7789,529.02576,1187.7079Q538.33344,1180.6986,547.4429,1168.5292Q633.2755,1058.0668,631.0076,1062.6814Q655.3196,1035.166,677.7982,1014.1157Q658.19196,1104.0073,654.1201,1143.9634Q646.21375,1218.9104,647.86127,1295.3416Q650.39514,1401.8143,693.22375,1467.9203Q667.33746,1394.9022,677.5598,1277.7672Q683.832,1204.4426,694.4579,1142.8419Q696.09973,1127.3436,731.2158,987.34937Q733.1745,978.13354,734.2239,969.297Q734.6179,966.1676,733.4093,964.1704Q715.9194,944.4176,701.9338,943.57837Q692.6442,941.2296,669.8468,959.8384Q598.8345,1017.07324,522.4014,1128.4882Q522.84595,1059.9739,543.07904,1007.72424Q550.0093,986.9645,568.2344,948.7328L610.3508,862.8456Q610.72314,861.32,617.34106,853.12823"/>
</g>
</g>
</svg>