<?xml version="1.0" encoding="utf-8"?>
<svg xmlns="http://www.w3.org/2000/svg" xmlns:xlink="http://www.w3.org/1999/xlink" version= "1.1" width="1080px" height="2034px" viewBox="0 0 1080 2034">
<rect x="0" y="0" width="1080" height="2034" fill="rgb(255,255,255)"/>
<g id="layer1">
<g>
<g style="fill:rgb(242,217,72); fill-opacity:1.0; stroke-linejoin: miter">
<path d="M675.1733,1130.2764Q681.6636,1128.7015,688.24316,1129.3218Q694.6134,1129.993,700.394,1132.8024Q705.9144,1135.4532,710.47736,1140.5532Q714.831,1145.7045,717.28796,1153.0891L703.0328,1159.2085Q700.22015,1150.3583,693.6082,1146.8639Q686.99634,1143.3691,678.6217,1145.4014Q665.22253,1148.6527,659.7561,1160.8423Q654.23883,1172.8221,658.2523,1189.3622Q660.132,1197.1085,663.5912,1203.1415Q667.0505,1209.1748,671.9874,1213.0757Q676.7151,1217.0273,682.6096,1218.479Q688.29474,1219.9813,694.78503,1218.4065Q702.32214,1216.5775,708.0057,1210.7644Q713.5307,1205.2118,714.3404,1193.9308L727.8105,1195.5393Q727.59814,1211.1091,719.5362,1220.8247Q711.68353,1230.4894,699.12177,1233.5376Q679.23224,1238.364,664.2056,1227.6002Q649.43915,1216.9951,643.292,1191.662Q640.5486,1180.3562,641.6123,1170.122Q642.51733,1160.148,646.75385,1152.0259Q650.781,1143.9546,658.03174,1138.2047Q665.33325,1132.6642,675.1733,1130.2764 Z M605.0964,1131.0974L633.70184,1263.6003L752.18335,1237.5107L723.15906,1105.1093L605.0964,1131.0974 Z"/>
</g>
</g>
</g>
<g id="layer2">
<g>
<g style="fill:rgb(57,175,225); fill-opacity:1.0; stroke-linejoin: miter">
<path d="M577.9478,1138.0796Q584.3741,1138.0796,590.38556,1140.1526Q596.1899,1142.2253,600.9576,1146.1641Q605.5181,1149.8953,608.6275,1155.6997Q611.5297,1161.5039,612.15155,1168.9666L597.43365,1171.4541Q596.8117,1162.5403,591.42206,1157.7725Q586.0324,1153.0049,577.74066,1153.0049Q564.4737,1153.0049,556.5965,1163.1624Q548.7193,1173.1123,548.7193,1189.4888Q548.7193,1197.1587,550.5849,1203.5847Q552.4506,1210.011,556.18195,1214.7788Q559.7059,1219.5464,564.88824,1222.2415Q569.86334,1224.936,576.2895,1224.936Q583.75214,1224.936,590.38556,1220.7903Q596.8117,1216.8516,600.1285,1206.4868L612.3588,1211.0474Q608.6275,1225.5581,598.8847,1232.8135Q589.3492,1240.0686,576.91144,1240.0686Q557.21844,1240.0686,545.6099,1226.5945Q534.2087,1213.3276,534.2087,1188.2449Q534.2087,1177.051,537.5253,1167.7227Q540.6348,1158.6018,546.439,1151.9683Q552.0361,1145.335,560.12054,1141.6035Q568.205,1138.0796,577.9478,1138.0796 Z M512.2354,1122.947L508.91864,1253.3357L625.6258,1255.823L628.5279,1125.4346L512.2354,1122.947 Z"/>
</g>
</g>
</g>
<g id="layer3">
<g>
<g style="fill:rgb(22,223,44); fill-opacity:1.0; stroke-linejoin: miter">
<path d="M463.5338,1152.3857Q459.5785,1152.3857,453.6124,1153.0454Q447.7155,1153.489,439.4574,1154.6287L443.06287,1189.7787L463.35052,1187.753Q477.2686,1186.4045,482.71857,1180.7715Q487.93164,1175.373,487.96863,1167.5922Q488.00677,1159.5754,482.12897,1156.0106Q476.25116,1152.4458,463.75452,1152.3864Q463.64496,1152.3857,463.5338,1152.3857 Z M468.64343,1197.9175Q467.2563,1197.9175,465.42325,1198.1377L444.19244,1200.1588L448.02136,1237.9036L477.74603,1234.7439Q496.85474,1232.7126,496.9265,1217.6223Q496.95233,1212.1992,494.8482,1208.4166Q492.97986,1204.635,489.69006,1202.2615Q486.39917,1200.1238,481.68906,1198.9224Q477.21362,1197.958,472.02637,1197.9333Q470.37585,1197.9255,468.72534,1197.9176Q468.6846,1197.9175,468.64343,1197.9175 Z M463.0509,1142.481Q463.3102,1142.481,463.56583,1142.4822Q480.54236,1142.563,489.7066,1149.2087Q498.63617,1155.6176,498.57452,1168.5857Q498.5431,1175.1877,494.50446,1181.5349Q490.70276,1187.6473,482.20102,1190.4364Q494.22046,1191.6726,501.02234,1199.2502Q507.58844,1206.8267,507.53687,1217.6729Q507.48077,1229.4622,499.4282,1236.9691Q491.37674,1244.2404,479.1103,1245.361L438.7708,1249.4133L429.0761,1155.9941L414.4496,1157.575L413.08533,1146.958L446.11212,1143.5781Q451.30164,1143.1313,455.7838,1142.6812Q459.72223,1142.481,463.0509,1142.481 Z M511.0686,1119.6007L392.87958,1131.7712L406.86127,1265.7668L524.8168,1253.1235L511.0686,1119.6007 Z"/>
</g>
</g>
</g>
<g id="layer4">
<g>
<g style="fill:rgb(223,22,33); fill-opacity:1.0; stroke-linejoin: miter">
<path d="M335.41934,1132.4099L357.2568,1137.0055L349.8751,1170.1075L386.54675,1178.3865L393.65033,1145.2367L406.632,1148.0304L387.80386,1231.295L374.82217,1228.5013L383.2439,1190.9948L346.57224,1182.716L338.1505,1220.2222L325.5423,1216.9193L341.52893,1146.9148L332.1166,1145.0182L335.41934,1132.4099 Z M317.4304,1106.9946L287.7199,1238.7994L400.79538,1264.1602L430.7366,1132.681L317.4304,1106.9946 Z"/>
</g>
</g>
</g>
</svg>